<!DOCTYPE svg PUBLIC "-//W3C//DTD SVG 20010904//EN" "http://www.w3.org/TR/2001/REC-SVG-20010904/DTD/svg10.dtd">
<svg version="1.0" xmlns="http://www.w3.org/2000/svg" width="1600px" height="351px" viewBox="0 0 16000 3510" preserveAspectRatio="xMidYMid meet">
<g id="layer101" fill="#ffffff" stroke="none">
 <path d="M1074 3407 c-3 -8 -4 -41 -2 -73 l3 -59 250 0 250 0 0 70 0 70 -248 3 c-203 2 -248 0 -253 -11z"/>
 <path d="M954 3166 c-3 -7 -4 -40 -2 -72 l3 -59 375 0 375 0 3 58 c2 35 -2 64 -9 73 -17 20 -737 21 -745 0z"/>
 <path d="M964 2927 c-3 -8 -4 -43 -2 -78 l3 -64 363 0 c267 0 366 3 373 12 6 6 9 40 7 75 l-3 63 -368 3 c-303 2 -368 0 -373 -11z"/>
 <path d="M6770 2809 c-219 -36 -366 -165 -423 -369 -41 -151 -42 -165 -42 -995 l0 -800 185 0 185 0 6 795 c4 457 11 812 16 835 42 172 75 205 208 205 134 0 174 -44 207 -225 7 -38 13 -343 17 -835 l6 -775 180 0 180 0 3 760 c3 759 -1 888 -32 1006 -48 183 -168 322 -321 372 -108 35 -255 45 -375 26z"/>
 <path d="M8180 2805 c-36 -7 -80 -18 -99 -25 -153 -58 -275 -199 -327 -380 -27 -94 -50 -258 -38 -270 5 -5 45 -18 89 -30 248 -66 257 -68 260 -56 2 6 9 52 15 101 13 105 45 214 74 258 38 57 80 77 158 77 85 0 121 -17 149 -72 18 -35 20 -55 17 -132 -5 -153 -26 -182 -311 -433 -117 -103 -242 -217 -278 -255 -70 -71 -126 -166 -150 -253 -18 -66 -19 -305 -1 -360 31 -93 66 -150 127 -212 102 -102 212 -142 395 -143 112 0 214 21 292 61 63 32 159 135 194 209 52 108 97 327 71 348 -19 15 -320 93 -328 85 -3 -5 -12 -46 -18 -93 -21 -145 -50 -224 -95 -253 -59 -39 -188 -41 -237 -3 -39 30 -53 70 -52 151 0 130 15 151 255 358 279 240 362 328 438 469 121 225 98 527 -53 694 -127 141 -334 201 -547 159z"/>
 <path d="M2549 2793 c-1 -5 -1 -10 -1 -13 0 -8 50 -247 73 -355 12 -55 25 -116 29 -135 4 -19 19 -91 34 -160 14 -69 34 -165 45 -215 11 -49 26 -124 35 -165 9 -41 25 -118 36 -170 12 -52 32 -147 45 -210 111 -533 146 -694 154 -710 7 -12 38 -15 187 -15 l179 0 17 75 c16 73 64 297 148 690 45 213 124 579 139 650 6 25 22 101 36 170 14 69 30 143 35 165 48 209 81 378 76 390 -5 13 -32 15 -188 13 l-183 -3 -16 -80 c-8 -44 -21 -109 -27 -145 -25 -141 -43 -246 -48 -267 -4 -23 -6 -23 -168 -23 l-164 0 -10 48 c-6 26 -27 135 -47 242 -20 107 -40 202 -44 210 -7 12 -40 15 -190 18 -99 1 -182 -1 -182 -5z m738 -855 c-3 -18 -15 -82 -27 -143 -11 -60 -32 -173 -46 -250 -14 -77 -27 -141 -29 -143 -1 -2 -6 14 -9 35 -9 48 -42 230 -66 353 -10 52 -21 114 -25 138 l-7 42 107 0 108 0 -6 -32z"/>
 <path d="M4257 2794 c-4 -4 -7 -179 -7 -390 l0 -383 -229 -684 c-126 -377 -227 -688 -223 -691 3 -3 85 -6 182 -6 193 0 187 -2 207 60 6 19 35 109 63 200 29 91 67 210 84 265 18 55 48 148 66 208 19 59 37 107 41 107 3 0 21 -46 38 -102 18 -57 48 -152 68 -213 19 -60 41 -130 48 -155 46 -159 107 -345 116 -357 9 -10 54 -13 190 -13 98 0 180 3 182 7 3 5 -97 309 -221 678 l-225 670 -6 400 -6 400 -181 3 c-99 1 -183 -1 -187 -4z"/>
 <path d="M5241 2787 c-8 -11 -10 -296 -9 -1078 l3 -1064 195 0 195 0 3 917 2 918 258 2 257 3 0 155 0 155 -446 3 c-368 2 -448 0 -458 -11z"/>
 <path d="M842 2688 c-5 -7 -13 -67 -16 -133 -8 -132 -16 -173 -53 -285 -39 -115 -103 -236 -204 -382 -50 -73 -109 -160 -132 -194 -57 -83 -72 -109 -108 -184 -47 -100 -45 -92 -88 -256 -13 -49 -15 -289 -2 -330 5 -16 16 -63 26 -104 10 -41 22 -81 28 -87 5 -7 7 -13 3 -13 -15 0 119 -229 174 -295 216 -262 522 -405 865 -405 111 0 167 8 300 40 74 18 261 112 341 171 222 164 369 386 436 659 8 34 13 112 13 205 -1 141 -3 156 -32 250 -47 146 -136 306 -272 490 -201 271 -270 435 -292 701 -6 76 -16 145 -22 152 -7 9 -116 12 -482 12 -366 0 -475 -3 -483 -12z m228 -331 c0 -137 3 -196 12 -205 16 -16 110 -16 126 0 9 9 12 68 12 205 l0 193 110 0 110 0 0 -194 c0 -155 3 -196 14 -205 8 -7 37 -11 68 -9 l53 3 3 203 2 202 45 0 45 0 0 -40 c0 -60 35 -225 69 -322 47 -133 126 -269 271 -463 67 -91 180 -266 180 -280 0 -3 10 -27 22 -53 76 -167 76 -407 -2 -602 -75 -191 -180 -328 -330 -435 -188 -133 -326 -178 -555 -179 -167 0 -246 16 -381 79 -148 69 -249 147 -351 270 -46 55 -123 176 -123 193 0 4 -8 23 -19 42 -32 61 -71 238 -71 327 0 183 77 389 215 573 39 52 62 83 107 146 120 167 200 318 233 440 31 113 45 189 45 246 l0 58 45 0 45 0 0 -193z"/>
 <path d="M1279 2076 c-2 -3 -16 -7 -29 -9 -56 -11 -145 -52 -214 -98 -95 -63 -172 -147 -220 -239 -36 -68 -39 -80 -40 -160 -1 -48 4 -98 10 -111 55 -121 84 -175 157 -297 47 -78 94 -154 104 -169 11 -15 27 -41 35 -58 9 -16 30 -55 47 -85 17 -30 35 -66 41 -80 6 -14 14 -34 19 -45 57 -129 63 -193 25 -272 -42 -88 -53 -122 -42 -129 5 -3 11 -4 12 -3 2 2 29 33 60 69 108 122 220 312 252 428 15 54 16 72 6 119 -10 51 -18 69 -53 133 -13 23 -109 166 -187 278 -84 120 -132 252 -132 362 0 51 25 147 45 170 7 8 29 40 50 70 21 30 47 67 59 83 13 18 17 30 10 37 -6 6 -12 8 -15 6z"/>
 <path d="M1433 2039 c-20 -20 -15 -108 8 -180 32 -96 63 -151 122 -216 56 -61 147 -184 147 -199 0 -5 6 -21 14 -36 20 -39 38 -159 34 -230 -2 -53 0 -63 14 -66 13 -2 29 21 64 95 62 128 69 207 31 348 -16 58 -73 133 -186 245 -70 69 -152 153 -182 188 -43 50 -56 61 -66 51z"/>
 <path d="M1311 1873 c-53 -64 -71 -112 -71 -189 0 -80 13 -112 99 -239 201 -295 201 -294 213 -430 4 -55 10 -106 13 -112 8 -22 25 -14 36 15 6 15 17 41 25 57 38 76 51 225 27 308 -14 49 -84 164 -153 252 -60 76 -77 101 -115 170 -22 39 -25 55 -23 121 4 91 -7 101 -51 47z"/>
 <path d="M10041 2144 c-78 -41 -106 -135 -99 -344 6 -182 33 -236 135 -266 83 -24 161 -2 206 58 40 54 49 110 45 274 -3 136 -5 153 -28 198 -36 72 -66 90 -153 94 -53 2 -81 -2 -106 -14z m119 -133 c16 -31 13 -313 -4 -336 -23 -32 -44 -12 -51 50 -9 66 -2 275 9 293 11 18 34 15 46 -7z"/>
 <path d="M10458 2145 c-52 -29 -59 -72 -56 -355 l3 -255 75 0 75 0 5 240 c5 234 6 240 26 243 40 6 43 -14 46 -254 l3 -229 75 0 75 0 0 305 0 305 -68 3 c-38 2 -74 -2 -82 -8 -9 -7 -21 -6 -41 5 -36 19 -101 19 -136 0z"/>
 <path d="M10952 2144 c-19 -10 -46 -32 -60 -51 -28 -34 -57 -123 -44 -134 4 -4 35 -16 70 -27 46 -15 64 -18 66 -9 2 7 9 31 15 53 11 43 29 58 56 48 15 -6 19 -31 9 -57 -3 -8 -41 -45 -84 -81 -118 -100 -149 -187 -98 -277 26 -48 52 -65 114 -79 101 -23 196 48 205 153 4 38 3 39 -46 58 -27 10 -55 17 -62 15 -7 -3 -15 -21 -18 -40 -8 -40 -28 -61 -50 -52 -31 11 -13 42 74 126 51 50 96 103 105 125 33 78 9 170 -55 216 -42 30 -150 37 -197 13z"/>
 <path d="M11375 2140 c-59 -39 -65 -64 -65 -282 l0 -197 -27 -3 c-27 -3 -28 -5 -28 -63 0 -58 1 -60 27 -63 27 -3 27 -5 30 -80 l3 -77 75 0 75 0 3 77 3 77 42 3 42 3 0 60 0 60 -42 3 -43 3 0 179 0 179 43 3 42 3 3 53 c4 73 -6 82 -87 82 -49 0 -74 -5 -96 -20z"/>
 <path d="M11715 2146 c-84 -38 -105 -100 -105 -301 0 -164 11 -218 53 -263 69 -74 201 -77 272 -6 46 45 60 111 60 269 -1 166 -14 220 -66 271 -38 37 -43 39 -112 41 -46 2 -83 -2 -102 -11z m103 -128 c15 -15 17 -325 2 -348 -7 -12 -13 -12 -27 -4 -16 10 -18 31 -21 174 -2 111 1 167 9 176 14 17 22 17 37 2z"/>
 <path d="M13755 2129 c-48 -43 -68 -92 -61 -152 10 -91 63 -152 180 -206 47 -22 48 -23 41 -59 -8 -44 -18 -57 -39 -49 -10 4 -16 23 -18 54 l-3 48 -62 3 c-84 4 -103 -7 -97 -56 9 -66 35 -122 68 -147 73 -56 197 -53 256 7 50 49 59 103 61 351 l1 222 -62 3 c-34 2 -67 -2 -75 -8 -9 -7 -20 -6 -41 5 -50 26 -108 20 -149 -16z m163 -188 c3 -56 -4 -62 -35 -28 -28 30 -36 62 -23 87 10 19 14 20 33 7 17 -11 23 -26 25 -66z"/>
 <path d="M14740 2153 c-93 -30 -130 -118 -130 -312 0 -110 17 -203 44 -244 29 -44 87 -70 155 -71 75 0 125 25 157 79 21 37 25 54 22 112 l-3 68 -70 0 -70 0 -3 -40 c-4 -72 -11 -87 -35 -83 -22 3 -22 6 -25 174 -2 143 0 173 13 184 26 22 44 -5 47 -73 l3 -62 70 0 70 0 3 60 c6 107 -29 177 -101 204 -29 11 -119 14 -147 4z"/>
 <path d="M9375 2138 c-3 -7 -4 -195 -3 -418 l3 -405 80 0 80 0 3 168 2 167 75 0 75 0 2 -167 3 -168 80 0 80 0 0 415 0 415 -80 0 -80 0 -3 -177 -2 -178 -75 0 -75 0 -2 178 -3 177 -78 3 c-56 2 -79 -1 -82 -10z"/>
 <path d="M12075 2138 c-3 -7 -4 -146 -3 -308 l3 -295 73 -3 c57 -2 73 0 78 12 5 13 10 14 32 2 75 -38 146 -24 179 36 16 30 18 61 18 298 l0 265 -80 0 -80 0 -3 -237 c-2 -218 -4 -238 -20 -238 -40 1 -42 8 -44 245 l-3 230 -73 3 c-52 2 -74 -1 -77 -10z"/>
 <path d="M12815 2137 c-3 -6 -4 -194 -3 -417 l3 -405 142 -3 c128 -2 147 0 188 19 80 38 115 100 115 204 -1 57 -20 117 -46 146 -17 19 -16 20 9 47 54 57 74 191 42 283 -19 52 -67 105 -114 125 -45 19 -329 20 -336 1z m258 -128 c14 -6 30 -22 36 -36 16 -34 14 -109 -4 -143 -19 -36 -43 -50 -89 -50 l-36 0 0 120 0 120 35 0 c19 0 45 -5 58 -11z m15 -394 c19 -17 21 -127 3 -149 -9 -11 -29 -16 -62 -16 l-49 0 0 96 0 96 48 -7 c26 -3 53 -12 60 -20z"/>
 <path d="M13355 2138 c-3 -7 -4 -146 -3 -308 l3 -295 78 -3 c63 -2 78 0 83 13 4 10 10 12 18 6 21 -17 81 -28 104 -20 22 8 23 13 20 91 -2 68 -6 82 -18 79 -52 -12 -97 -12 -108 1 -8 10 -12 81 -14 229 l-3 214 -78 3 c-56 2 -79 -1 -82 -10z"/>
 <path d="M14165 2138 c-3 -7 -4 -146 -3 -308 l3 -295 73 -3 c56 -2 74 0 78 11 5 13 10 13 37 -1 17 -8 50 -15 75 -15 35 0 49 5 75 32 l32 31 0 278 0 277 -75 0 -75 0 -3 -237 c-2 -218 -4 -238 -20 -238 -40 1 -42 8 -44 245 l-3 230 -73 3 c-52 2 -74 -1 -77 -10z"/>
 <path d="M15075 2138 c-3 -7 -4 -195 -3 -418 l3 -405 75 0 75 0 3 123 3 122 27 -14 c75 -38 146 -24 179 36 16 30 18 61 18 298 l0 265 -80 0 -80 0 -3 -237 c-2 -218 -4 -238 -20 -238 -40 1 -42 8 -44 245 l-3 230 -73 3 c-52 2 -74 -1 -77 -10z"/>
 </g>

</svg>