<!DOCTYPE svg PUBLIC "-//W3C//DTD SVG 20010904//EN" "http://www.w3.org/TR/2001/REC-SVG-20010904/DTD/svg10.dtd">
<svg version="1.0" xmlns="http://www.w3.org/2000/svg" width="400px" height="150px" viewBox="0 0 4000 1500" preserveAspectRatio="xMidYMid meet">
<g id="layer1" fill="#000000" stroke="none">
 <path d="M444 1355 c-11 -28 11 -36 92 -33 71 3 79 5 79 23 0 18 -8 20 -83 23 -68 2 -83 0 -88 -13z"/>
 <path d="M393 1265 c-11 -30 12 -36 143 -33 121 3 129 4 129 23 0 19 -8 20 -133 23 -114 2 -133 0 -139 -13z"/>
 <path d="M1076 1241 c-6 -9 129 -856 140 -872 7 -12 211 -12 218 0 13 20 146 865 138 873 -5 5 -44 8 -88 6 l-79 -3 -8 -45 c-18 -99 -11 -90 -77 -90 -66 0 -59 -9 -77 90 l-8 45 -77 3 c-42 2 -79 -1 -82 -7z m278 -328 c-3 -16 -13 -79 -22 -142 l-17 -114 -19 129 c-10 71 -21 135 -23 142 -4 8 8 12 41 12 44 0 45 -1 40 -27z"/>
 <path d="M1847 1244 c-4 -4 -7 -69 -7 -144 l0 -136 -85 -293 c-46 -162 -82 -297 -79 -302 9 -15 184 -11 188 4 2 6 19 77 37 156 l34 144 34 -144 c18 -79 35 -150 37 -156 4 -15 169 -19 178 -4 3 5 -31 134 -76 287 l-82 279 -6 155 -5 155 -80 3 c-45 1 -84 0 -88 -4z"/>
 <path d="M2325 1238 c-3 -7 -4 -206 -3 -443 l3 -430 85 0 85 0 3 357 2 357 103 3 102 3 0 80 0 80 -188 3 c-144 2 -189 0 -192 -10z"/>
 <path d="M2955 1233 c-47 -24 -73 -53 -90 -97 -13 -35 -15 -96 -13 -406 l3 -365 80 0 80 0 5 350 c3 193 9 356 13 363 5 6 21 12 37 12 16 0 32 -6 37 -12 4 -7 10 -170 13 -363 l5 -350 75 0 75 0 3 360 c2 230 -1 373 -8 396 -14 49 -44 86 -91 109 -49 25 -179 27 -224 3z"/>
 <path d="M3566 1235 c-85 -30 -129 -106 -124 -215 l3 -65 80 0 80 0 5 65 5 65 40 0 40 0 3 -53 c4 -67 -7 -84 -109 -180 -101 -95 -139 -166 -139 -262 0 -156 71 -234 210 -233 76 0 127 20 163 63 31 36 39 74 35 150 l-3 55 -75 0 -75 0 -5 -55 -5 -55 -35 0 c-35 0 -35 1 -38 47 -4 65 14 96 128 214 109 112 120 134 120 245 0 71 -19 140 -48 172 -46 52 -170 73 -256 42z"/>
 <path d="M393 1175 c-11 -30 12 -36 143 -33 121 3 129 4 129 23 0 19 -8 20 -133 23 -114 2 -133 0 -139 -13z"/>
 <path d="M357 1094 c-4 -4 -7 -21 -7 -38 0 -76 -43 -180 -112 -274 -58 -78 -95 -152 -108 -218 -49 -237 220 -495 462 -445 141 29 253 115 311 238 28 60 31 78 31 153 -1 97 -23 156 -98 257 -81 111 -120 200 -128 298 l-3 30 -171 3 c-93 1 -173 -1 -177 -4z m85 -116 c3 -70 4 -73 28 -73 24 0 25 3 28 73 l3 72 34 0 34 0 3 -72 c3 -70 4 -73 28 -73 24 0 25 3 28 73 2 55 6 72 17 72 9 0 15 -10 15 -23 0 -50 46 -156 108 -247 36 -52 76 -119 89 -148 68 -147 -3 -339 -154 -420 -32 -16 -86 -36 -119 -43 -192 -39 -405 137 -406 337 -1 77 25 140 107 259 73 106 115 201 115 261 0 17 6 24 20 24 17 0 19 -8 22 -72z"/>
 <path d="M437 840 c-25 -16 -60 -48 -77 -72 -48 -65 -40 -109 43 -248 57 -94 83 -151 104 -230 6 -21 39 20 70 88 29 63 24 89 -38 177 -90 129 -104 192 -57 262 24 37 27 53 8 53 -3 0 -27 -13 -53 -30z"/>
 <path d="M574 837 c-7 -20 27 -92 66 -138 17 -19 39 -58 48 -85 10 -27 22 -48 27 -47 19 3 28 62 17 101 -15 49 -148 193 -158 169z"/>
 <path d="M509 769 c-16 -32 -4 -72 43 -141 23 -34 49 -82 59 -107 20 -54 30 -57 41 -16 10 41 -6 96 -45 147 -48 64 -67 96 -67 112 0 25 -18 28 -31 5z"/>
 </g>
<g id="layer2" fill="#ffffff" stroke="none">
 <path d="M0 750 l0 -750 2000 0 2000 0 0 750 0 750 -2000 0 -2000 0 0 -750z m568 593 c-21 -2 -55 -2 -75 0 -21 2 -4 4 37 4 41 0 58 -2 38 -4z m25 -90 c-35 -2 -91 -2 -125 0 -35 2 -7 3 62 3 69 0 97 -1 63 -3z m632 -60 c16 -102 12 -98 95 -98 83 0 79 -4 95 98 l6 37 70 0 71 0 -6 -27 c-3 -16 -33 -194 -66 -398 -33 -203 -63 -382 -66 -398 l-6 -27 -93 0 -93 0 -6 27 c-3 16 -33 195 -66 398 -33 204 -63 382 -66 398 l-6 27 66 0 65 0 6 -37z m775 -96 l0 -134 71 -244 c38 -134 76 -265 84 -291 l14 -48 -72 0 -72 0 -40 166 c-22 91 -44 165 -50 165 -5 0 -28 -74 -50 -165 l-40 -166 -77 0 -77 0 14 48 c8 26 46 157 84 291 l71 244 0 134 0 133 70 0 70 0 0 -133z m690 68 l0 -64 -102 -3 -103 -3 -3 -357 -2 -358 -70 0 -70 0 0 425 0 425 175 0 175 0 0 -65z m491 44 c29 -14 46 -32 60 -62 17 -39 19 -70 19 -404 l0 -363 -60 0 -59 0 -3 344 c-3 322 -4 345 -22 365 -24 27 -68 27 -92 0 -18 -20 -19 -43 -22 -365 l-3 -344 -64 0 -65 0 0 363 c0 334 2 365 19 404 28 60 74 82 174 83 59 0 87 -5 118 -21z m589 -1 c56 -29 79 -81 79 -183 1 -114 -9 -136 -119 -249 -109 -113 -130 -146 -130 -207 0 -50 22 -79 58 -79 40 0 62 27 62 77 l0 43 60 0 60 0 0 -62 c0 -120 -54 -171 -180 -171 -129 -1 -181 53 -188 196 -4 72 -2 83 27 142 24 48 52 82 107 132 94 85 114 116 114 178 0 58 -20 85 -63 85 -48 0 -67 -25 -67 -87 l0 -53 -65 0 -65 0 0 63 c0 65 23 130 53 156 55 45 186 54 257 19z m-3177 -45 c-35 -2 -91 -2 -125 0 -35 2 -7 3 62 3 69 0 97 -1 63 -3z m97 -110 c0 -40 34 -146 61 -190 13 -21 42 -64 66 -96 74 -102 96 -160 97 -257 0 -75 -3 -93 -31 -152 -55 -117 -152 -191 -291 -219 -152 -32 -333 61 -407 208 -71 143 -50 268 73 435 68 92 112 198 112 271 l0 27 160 0 160 0 0 -27z"/>
 <path d="M1256 952 c-8 -13 48 -355 59 -356 10 -1 67 343 59 356 -3 4 -29 8 -59 8 -30 0 -56 -4 -59 -8z"/>
 <path d="M387 1064 c-4 -4 -7 -20 -7 -35 0 -63 -40 -156 -115 -264 -41 -60 -82 -131 -91 -159 -62 -184 69 -394 282 -452 58 -15 74 -16 128 -5 131 27 232 106 288 228 25 53 31 77 30 133 0 84 -22 135 -114 271 -62 91 -103 186 -110 254 -3 26 -7 30 -33 30 l-30 0 -3 -72 c-2 -40 -7 -73 -12 -73 -5 0 -10 33 -12 73 l-3 72 -50 0 -50 0 -3 -72 c-2 -40 -7 -73 -12 -73 -5 0 -10 33 -12 73 l-3 72 -30 3 c-17 2 -34 0 -38 -4z m62 -270 c-31 -61 -14 -118 70 -239 62 -89 68 -114 37 -180 -14 -30 -27 -55 -29 -55 -2 0 -12 21 -22 47 -10 25 -47 95 -83 154 -77 129 -87 177 -52 234 19 31 89 90 97 82 1 -2 -6 -21 -18 -43z m240 -81 c13 -17 25 -51 28 -75 l4 -43 -19 41 c-11 22 -33 56 -49 75 -29 33 -53 71 -53 84 0 12 66 -49 89 -82z m-107 -54 c36 -48 66 -125 54 -137 -3 -3 -6 -1 -6 5 0 6 -22 45 -50 87 -27 42 -52 88 -55 104 -5 24 -4 25 7 9 7 -10 30 -41 50 -68z"/>
 </g>

</svg>