<!DOCTYPE svg PUBLIC "-//W3C//DTD SVG 20010904//EN" "http://www.w3.org/TR/2001/REC-SVG-20010904/DTD/svg10.dtd">
<svg version="1.0" xmlns="http://www.w3.org/2000/svg" width="700px" height="150px" viewBox="0 0 7000 1500" preserveAspectRatio="xMidYMid meet">
<g id="layer1" fill="#000000" stroke="none">
 <path d="M444 1355 c-11 -28 11 -36 92 -33 71 3 79 5 79 23 0 18 -8 20 -83 23 -68 2 -83 0 -88 -13z"/>
 <path d="M393 1265 c-11 -30 12 -36 143 -33 121 3 129 4 129 23 0 19 -8 20 -133 23 -114 2 -133 0 -139 -13z"/>
 <path d="M1076 1241 c-6 -9 129 -856 140 -872 7 -12 211 -12 218 0 13 20 146 865 138 873 -5 5 -44 8 -88 6 l-79 -3 -8 -45 c-18 -99 -11 -90 -77 -90 -66 0 -59 -9 -77 90 l-8 45 -77 3 c-42 2 -79 -1 -82 -7z m278 -328 c-3 -16 -13 -79 -22 -142 l-17 -114 -19 129 c-10 71 -21 135 -23 142 -4 8 8 12 41 12 44 0 45 -1 40 -27z"/>
 <path d="M1847 1244 c-4 -4 -7 -69 -7 -144 l0 -136 -85 -293 c-46 -162 -82 -297 -79 -302 9 -15 184 -11 188 4 2 6 19 77 37 156 l34 144 34 -144 c18 -79 35 -150 37 -156 4 -15 169 -19 178 -4 3 5 -31 134 -76 287 l-82 279 -6 155 -5 155 -80 3 c-45 1 -84 0 -88 -4z"/>
 <path d="M2325 1238 c-3 -7 -4 -206 -3 -443 l3 -430 85 0 85 0 3 357 2 357 103 3 102 3 0 80 0 80 -188 3 c-144 2 -189 0 -192 -10z"/>
 <path d="M2955 1233 c-47 -24 -73 -53 -90 -97 -13 -35 -15 -96 -13 -406 l3 -365 80 0 80 0 5 350 c3 193 9 356 13 363 5 6 21 12 37 12 16 0 32 -6 37 -12 4 -7 10 -170 13 -363 l5 -350 75 0 75 0 3 360 c2 230 -1 373 -8 396 -14 49 -44 86 -91 109 -49 25 -179 27 -224 3z"/>
 <path d="M3566 1235 c-85 -30 -129 -106 -124 -215 l3 -65 80 0 80 0 5 65 5 65 40 0 40 0 3 -53 c4 -67 -7 -84 -109 -180 -101 -95 -139 -166 -139 -262 0 -156 71 -234 210 -233 76 0 127 20 163 63 31 36 39 74 35 150 l-3 55 -75 0 -75 0 -5 -55 -5 -55 -35 0 c-35 0 -35 1 -38 47 -4 65 14 96 128 214 109 112 120 134 120 245 0 71 -19 140 -48 172 -46 52 -170 73 -256 42z"/>
 <path d="M393 1175 c-11 -30 12 -36 143 -33 121 3 129 4 129 23 0 19 -8 20 -133 23 -114 2 -133 0 -139 -13z"/>
 <path d="M357 1094 c-4 -4 -7 -21 -7 -38 0 -76 -43 -180 -112 -274 -58 -78 -95 -152 -108 -218 -49 -237 220 -495 462 -445 141 29 253 115 311 238 28 60 31 78 31 153 -1 97 -23 156 -98 257 -81 111 -120 200 -128 298 l-3 30 -171 3 c-93 1 -173 -1 -177 -4z m85 -116 c3 -70 4 -73 28 -73 24 0 25 3 28 73 l3 72 34 0 34 0 3 -72 c3 -70 4 -73 28 -73 24 0 25 3 28 73 2 55 6 72 17 72 9 0 15 -10 15 -23 0 -50 46 -156 108 -247 36 -52 76 -119 89 -148 68 -147 -3 -339 -154 -420 -32 -16 -86 -36 -119 -43 -192 -39 -405 137 -406 337 -1 77 25 140 107 259 73 106 115 201 115 261 0 17 6 24 20 24 17 0 19 -8 22 -72z"/>
 <path d="M437 840 c-25 -16 -60 -48 -77 -72 -48 -65 -40 -109 43 -248 57 -94 83 -151 104 -230 6 -21 39 20 70 88 29 63 24 89 -38 177 -90 129 -104 192 -57 262 24 37 27 53 8 53 -3 0 -27 -13 -53 -30z"/>
 <path d="M574 837 c-7 -20 27 -92 66 -138 17 -19 39 -58 48 -85 10 -27 22 -48 27 -47 19 3 28 62 17 101 -15 49 -148 193 -158 169z"/>
 <path d="M509 769 c-16 -32 -4 -72 43 -141 23 -34 49 -82 59 -107 20 -54 30 -57 41 -16 10 41 -6 96 -45 147 -48 64 -67 96 -67 112 0 25 -18 28 -31 5z"/>
 <path d="M4175 968 c-3 -8 -4 -86 -3 -173 l3 -160 35 0 35 0 3 63 c3 53 6 62 22 62 16 0 19 -9 22 -62 l3 -63 35 0 35 0 0 170 0 170 -35 0 -35 0 -3 -72 c-3 -64 -5 -73 -22 -73 -17 0 -19 9 -22 73 l-3 72 -33 3 c-20 2 -34 -2 -37 -10z"/>
 <path d="M4431 954 c-30 -25 -31 -29 -31 -104 0 -75 1 -79 31 -104 17 -14 41 -26 54 -26 13 0 37 12 54 26 30 25 31 29 31 104 0 75 -1 79 -31 104 -17 14 -41 26 -54 26 -13 0 -37 -12 -54 -26z m56 -141 c-2 -21 -4 -4 -4 37 0 41 2 58 4 38 2 -21 2 -55 0 -75z"/>
 <path d="M4616 961 c-14 -15 -16 -38 -14 -127 l3 -109 35 0 35 0 5 100 6 100 4 -100 5 -100 35 0 35 0 0 125 0 125 -67 2 c-53 1 -70 -2 -82 -16z"/>
 <path d="M4818 952 c-21 -19 -29 -34 -25 -45 8 -22 35 -22 59 0 10 9 21 13 25 9 4 -3 -14 -28 -40 -54 -26 -27 -47 -57 -47 -69 0 -25 53 -73 81 -73 28 0 84 53 76 73 -8 22 -35 22 -59 0 -10 -9 -21 -13 -25 -9 -4 3 14 28 40 54 55 56 61 90 21 121 -36 29 -68 26 -106 -7z"/>
 <path d="M5005 955 c-22 -21 -25 -33 -25 -98 0 -57 -4 -76 -15 -81 -19 -7 -20 -42 -1 -53 8 -4 16 -21 18 -38 3 -26 7 -30 33 -30 26 0 30 4 33 31 2 22 9 34 23 37 26 7 25 47 -1 54 -17 5 -20 14 -20 68 0 54 3 63 20 68 22 6 27 36 8 55 -19 19 -47 14 -73 -13z"/>
 <path d="M5141 954 c-30 -25 -31 -29 -31 -104 0 -75 1 -79 31 -104 17 -14 41 -26 54 -26 13 0 37 12 54 26 30 25 31 29 31 104 0 75 -1 79 -31 104 -17 14 -41 26 -54 26 -13 0 -37 -12 -54 -26z m56 -141 c-2 -21 -4 -4 -4 37 0 41 2 58 4 38 2 -21 2 -55 0 -75z"/>
 <path d="M5305 968 c-3 -8 -4 -66 -3 -129 l3 -114 67 -2 c95 -2 99 5 96 143 l-3 109 -35 0 -35 0 -5 -100 -4 -100 -6 100 -5 100 -33 3 c-20 2 -34 -2 -37 -10z"/>
 <path d="M5614 967 c-2 -7 -3 -85 -2 -172 l3 -160 68 -3 c63 -3 69 -1 97 27 33 33 40 83 16 116 -12 17 -12 22 5 44 35 44 18 121 -32 147 -36 18 -148 19 -155 1z m121 -97 c0 -29 -4 -36 -22 -38 -21 -3 -23 1 -23 38 0 37 2 41 23 38 18 -2 22 -9 22 -38z m0 -140 c0 -29 -4 -36 -22 -38 -21 -3 -23 1 -23 38 0 37 2 41 23 38 18 -2 22 -9 22 -38z"/>
 <path d="M5855 968 c-3 -8 -4 -66 -3 -129 l3 -114 60 0 c55 0 60 2 63 23 3 17 -3 25 -27 33 l-30 11 -3 91 -3 92 -28 3 c-16 2 -29 -2 -32 -10z"/>
 <path d="M6011 956 c-11 -12 -21 -34 -21 -47 0 -26 36 -67 78 -88 12 -6 22 -18 22 -26 0 -22 -17 -18 -23 6 -4 16 -12 20 -34 17 -65 -7 -22 -98 47 -98 15 0 39 9 54 21 26 21 27 23 24 127 l-3 107 -61 2 c-52 2 -65 -2 -83 -21z m77 -71 c3 -25 2 -27 -12 -16 -19 16 -22 55 -3 49 6 -3 14 -17 15 -33z"/>
 <path d="M6195 968 c-3 -8 -4 -66 -3 -129 l3 -114 67 -2 c95 -2 99 5 96 143 l-3 109 -35 0 -35 0 -5 -100 -4 -100 -6 100 -5 100 -33 3 c-20 2 -34 -2 -37 -10z"/>
 <path d="M6416 959 c-25 -19 -26 -25 -26 -109 0 -84 1 -90 26 -109 54 -43 138 -9 132 53 -3 27 -7 31 -33 31 -23 0 -31 -5 -33 -22 -7 -51 -22 -19 -22 47 0 66 15 98 22 48 2 -18 10 -23 33 -23 26 0 30 4 33 31 6 62 -78 96 -132 53z"/>
 <path d="M6585 968 c-3 -8 -4 -86 -3 -173 l3 -160 35 0 c34 0 35 1 38 46 3 43 4 45 30 41 18 -2 33 3 45 16 15 16 17 36 15 128 l-3 109 -35 0 -35 0 -5 -100 -6 -100 -4 100 -5 100 -33 3 c-20 2 -34 -2 -37 -10z"/>
 </g>
<g id="layer2" fill="#ffffff" stroke="none">
 <path d="M0 750 l0 -750 3500 0 3500 0 0 750 0 750 -3500 0 -3500 0 0 -750z m568 593 c-21 -2 -55 -2 -75 0 -21 2 -4 4 37 4 41 0 58 -2 38 -4z m25 -90 c-35 -2 -91 -2 -125 0 -35 2 -7 3 62 3 69 0 97 -1 63 -3z m632 -60 c16 -102 12 -98 95 -98 83 0 79 -4 95 98 l6 37 70 0 71 0 -6 -27 c-3 -16 -33 -194 -66 -398 -33 -203 -63 -382 -66 -398 l-6 -27 -93 0 -93 0 -6 27 c-3 16 -33 195 -66 398 -33 204 -63 382 -66 398 l-6 27 66 0 65 0 6 -37z m775 -96 l0 -134 71 -244 c38 -134 76 -265 84 -291 l14 -48 -72 0 -72 0 -40 166 c-22 91 -44 165 -50 165 -5 0 -28 -74 -50 -165 l-40 -166 -77 0 -77 0 14 48 c8 26 46 157 84 291 l71 244 0 134 0 133 70 0 70 0 0 -133z m690 68 l0 -64 -102 -3 -103 -3 -3 -357 -2 -358 -70 0 -70 0 0 425 0 425 175 0 175 0 0 -65z m491 44 c29 -14 46 -32 60 -62 17 -39 19 -70 19 -404 l0 -363 -60 0 -59 0 -3 344 c-3 322 -4 345 -22 365 -24 27 -68 27 -92 0 -18 -20 -19 -43 -22 -365 l-3 -344 -64 0 -65 0 0 363 c0 334 2 365 19 404 28 60 74 82 174 83 59 0 87 -5 118 -21z m589 -1 c56 -29 79 -81 79 -183 1 -114 -9 -136 -119 -249 -109 -113 -130 -146 -130 -207 0 -50 22 -79 58 -79 40 0 62 27 62 77 l0 43 60 0 60 0 0 -62 c0 -120 -54 -171 -180 -171 -129 -1 -181 53 -188 196 -4 72 -2 83 27 142 24 48 52 82 107 132 94 85 114 116 114 178 0 58 -20 85 -63 85 -48 0 -67 -25 -67 -87 l0 -53 -65 0 -65 0 0 63 c0 65 23 130 53 156 55 45 186 54 257 19z m-3177 -45 c-35 -2 -91 -2 -125 0 -35 2 -7 3 62 3 69 0 97 -1 63 -3z m97 -110 c0 -40 34 -146 61 -190 13 -21 42 -64 66 -96 74 -102 96 -160 97 -257 0 -75 -3 -93 -31 -152 -55 -117 -152 -191 -291 -219 -152 -32 -333 61 -407 208 -71 143 -50 268 73 435 68 92 112 198 112 271 l0 27 160 0 160 0 0 -27z m3542 -165 l3 -73 35 0 35 0 3 73 c3 64 5 72 22 72 19 0 20 -8 20 -155 0 -147 -1 -155 -20 -155 -16 0 -19 8 -22 63 l-3 62 -35 0 -35 0 -3 -62 c-3 -55 -6 -63 -22 -63 -19 0 -20 8 -20 155 0 147 1 155 20 155 17 0 19 -8 22 -72z m296 56 c20 -13 22 -24 22 -94 0 -70 -2 -81 -22 -94 -12 -9 -32 -16 -43 -16 -11 0 -31 7 -43 16 -20 13 -22 24 -22 94 0 70 2 81 22 94 12 9 32 16 43 16 11 0 31 -7 43 -16z m159 5 c8 -8 13 -8 17 0 4 6 16 11 27 11 18 0 19 -8 19 -110 0 -103 -1 -110 -20 -110 -18 0 -20 7 -20 89 0 61 -4 92 -13 100 -26 21 -37 -9 -37 -101 0 -81 -2 -88 -20 -88 -19 0 -20 7 -20 103 0 57 3 107 7 110 10 11 48 8 60 -4z m224 1 c34 -19 24 -59 -28 -112 -44 -45 -46 -49 -30 -65 15 -16 18 -16 35 0 10 9 24 17 31 17 20 0 7 -24 -22 -40 -24 -13 -30 -13 -54 0 -45 25 -42 56 13 111 45 46 47 50 31 66 -15 16 -18 16 -35 0 -20 -19 -42 -22 -42 -8 0 14 41 41 63 41 10 0 27 -5 38 -10z m159 -3 c0 -7 -9 -18 -20 -25 -17 -10 -20 -23 -20 -83 0 -62 2 -71 20 -76 11 -3 20 -9 20 -13 0 -4 -9 -10 -20 -13 -15 -4 -20 -14 -20 -36 0 -21 -5 -31 -15 -31 -10 0 -15 10 -15 30 0 17 -7 33 -17 40 -17 10 -17 10 0 20 14 9 17 25 17 90 0 58 4 83 16 94 19 19 54 21 54 3z m168 -3 c20 -13 22 -24 22 -94 0 -70 -2 -81 -22 -94 -12 -9 -32 -16 -43 -16 -11 0 -31 7 -43 16 -20 13 -22 24 -22 94 0 70 2 81 22 94 12 9 32 16 43 16 11 0 31 -7 43 -16z m122 -73 c0 -61 4 -92 13 -100 26 -21 37 9 37 101 0 82 1 88 20 88 20 0 21 -5 18 -107 -3 -104 -4 -108 -26 -111 -13 -2 -29 2 -37 8 -9 7 -15 8 -20 0 -3 -5 -15 -10 -26 -10 -18 0 -19 8 -19 110 0 103 1 110 20 110 18 0 20 -7 20 -89z m415 64 c34 -33 34 -88 0 -119 -25 -23 -25 -23 -5 -41 26 -24 26 -79 0 -105 -16 -16 -33 -20 -80 -20 l-60 0 0 155 0 155 60 0 c51 0 65 -4 85 -25z m125 -60 c0 -85 0 -86 30 -103 16 -9 30 -20 30 -24 0 -12 -28 -9 -36 3 -4 8 -9 8 -17 0 -6 -6 -17 -11 -24 -11 -10 0 -13 26 -13 110 0 91 3 110 15 110 12 0 15 -16 15 -85z m186 74 c4 -8 9 -8 17 0 6 6 17 11 24 11 11 0 13 -22 11 -102 -3 -102 -3 -103 -30 -112 -38 -13 -82 3 -86 32 -4 28 15 28 38 0 15 -19 20 -20 34 -9 26 22 19 49 -16 67 -18 9 -41 23 -50 32 -21 17 -24 62 -6 80 15 15 55 16 64 1z m164 -78 c0 -61 4 -92 13 -100 26 -21 37 9 37 101 0 82 1 88 20 88 20 0 21 -5 18 -107 -3 -104 -4 -108 -26 -111 -13 -2 -29 2 -37 8 -9 7 -15 8 -20 0 -3 -5 -15 -10 -26 -10 -18 0 -19 8 -19 110 0 103 1 110 20 110 18 0 20 -7 20 -89z m261 79 c23 -13 26 -60 4 -60 -8 0 -15 6 -15 14 0 7 -7 19 -15 26 -29 24 -45 -5 -45 -80 0 -75 16 -104 45 -80 8 7 15 19 15 26 0 8 7 14 16 14 11 0 14 -8 12 -27 -4 -34 -44 -52 -85 -37 -27 9 -28 11 -31 99 -2 76 0 92 14 102 21 16 58 17 85 3z m129 -79 c0 -54 4 -93 11 -97 8 -4 8 -9 0 -17 -6 -6 -11 -33 -11 -59 0 -41 -3 -48 -20 -48 -19 0 -20 7 -20 155 0 148 1 155 20 155 19 0 20 -7 20 -89z m88 -18 c-3 -95 -5 -108 -21 -111 -10 -2 -25 -1 -34 2 -14 6 -14 8 1 24 12 14 16 39 16 105 0 81 1 87 20 87 20 0 21 -5 18 -107z"/>
 <path d="M1256 952 c-8 -13 48 -355 59 -356 10 -1 67 343 59 356 -3 4 -29 8 -59 8 -30 0 -56 -4 -59 -8z"/>
 <path d="M387 1064 c-4 -4 -7 -20 -7 -35 0 -63 -40 -156 -115 -264 -41 -60 -82 -131 -91 -159 -62 -184 69 -394 282 -452 58 -15 74 -16 128 -5 131 27 232 106 288 228 25 53 31 77 30 133 0 84 -22 135 -114 271 -62 91 -103 186 -110 254 -3 26 -7 30 -33 30 l-30 0 -3 -72 c-2 -40 -7 -73 -12 -73 -5 0 -10 33 -12 73 l-3 72 -50 0 -50 0 -3 -72 c-2 -40 -7 -73 -12 -73 -5 0 -10 33 -12 73 l-3 72 -30 3 c-17 2 -34 0 -38 -4z m62 -270 c-31 -61 -14 -118 70 -239 62 -89 68 -114 37 -180 -14 -30 -27 -55 -29 -55 -2 0 -12 21 -22 47 -10 25 -47 95 -83 154 -77 129 -87 177 -52 234 19 31 89 90 97 82 1 -2 -6 -21 -18 -43z m240 -81 c13 -17 25 -51 28 -75 l4 -43 -19 41 c-11 22 -33 56 -49 75 -29 33 -53 71 -53 84 0 12 66 -49 89 -82z m-107 -54 c36 -48 66 -125 54 -137 -3 -3 -6 -1 -6 5 0 6 -22 45 -50 87 -27 42 -52 88 -55 104 -5 24 -4 25 7 9 7 -10 30 -41 50 -68z"/>
 <path d="M4472 928 c-7 -7 -12 -41 -12 -78 0 -70 13 -98 37 -79 8 8 13 35 13 79 0 71 -15 101 -38 78z"/>
 <path d="M5182 928 c-7 -7 -12 -41 -12 -78 0 -70 13 -98 37 -79 8 8 13 35 13 79 0 71 -15 101 -38 78z"/>
 <path d="M5674 916 c-3 -7 -4 -33 -2 -57 3 -37 7 -45 26 -47 52 -8 83 66 44 101 -23 21 -61 22 -68 3z"/>
 <path d="M5674 776 c-3 -7 -4 -33 -2 -57 3 -37 7 -45 26 -47 52 -8 83 66 44 101 -23 21 -61 22 -68 3z"/>
 <path d="M6052 928 c-7 -7 -12 -19 -12 -28 0 -22 45 -64 59 -55 17 10 13 60 -7 78 -22 20 -25 20 -40 5z"/>
 </g>

</svg>