<?xml version="1.0" standalone="no"?>
<!DOCTYPE svg PUBLIC "-//W3C//DTD SVG 20010904//EN"
 "http://www.w3.org/TR/2001/REC-SVG-20010904/DTD/svg10.dtd">
<svg version="1.0" xmlns="http://www.w3.org/2000/svg"
 width="603.624269pt" height="191.656080pt" viewBox="0 0 603.624269 191.656080"
 preserveAspectRatio="xMidYMid meet">
<metadata>
Created by potrace 1.12, written by Peter Selinger 2001-2015
</metadata>
<g transform="translate(-14.124364,213.797526) scale(0.100000,-0.100000)"
fill="#000000" stroke="none">
<path d="M622 2125 c-110 -24 -226 -88 -303 -166 -136 -138 -183 -252 -177
-432 3 -101 6 -118 35 -179 17 -37 68 -123 112 -192 137 -212 171 -291 186
-438 l7 -66 102 -7 c114 -8 401 -3 411 6 3 4 13 53 21 110 16 120 42 181 136
326 157 241 188 308 195 428 7 106 -9 178 -65 289 -63 125 -139 200 -265 261
-147 71 -262 89 -395 60z m264 -49 c152 -40 303 -163 368 -298 58 -121 69
-211 42 -338 -21 -95 -55 -162 -141 -280 -88 -120 -139 -222 -185 -367 -32
-99 -34 -103 -62 -103 -36 0 -39 7 -47 128 -7 87 -8 94 -19 69 -7 -16 -12 -62
-12 -102 0 -65 -3 -76 -22 -89 -31 -22 -94 -20 -116 2 -14 14 -21 40 -25 93
-3 41 -11 88 -17 104 l-12 30 -10 -25 c-5 -14 -12 -61 -15 -105 -6 -85 -14
-105 -44 -105 -26 0 -43 32 -73 137 -33 118 -74 199 -185 367 -95 144 -117
194 -127 296 -20 201 73 390 247 506 105 70 182 94 304 94 55 0 123 -6 151
-14z"/>
<path d="M710 1818 c-20 -80 -29 -97 -103 -220 -101 -167 -145 -251 -153 -294
-9 -49 18 -135 57 -178 36 -41 137 -112 146 -102 4 3 -8 37 -26 75 -30 60 -33
74 -26 117 10 68 23 97 106 226 78 122 109 189 109 241 0 31 -33 94 -81 155
l-18 23 -11 -43z"/>
<path d="M883 1512 c-12 -28 -54 -100 -92 -158 -62 -92 -71 -111 -71 -151 l0
-45 65 89 c100 135 127 192 123 261 l-3 57 -22 -53z"/>
<path d="M1000 1363 c-14 -26 -49 -81 -78 -121 -53 -74 -97 -151 -90 -157 2
-2 38 25 80 60 97 82 135 150 122 220 l-9 46 -25 -48z"/>
<path d="M5786 1744 c-81 -29 -167 -114 -186 -184 -15 -53 -12 -168 5 -235 22
-85 63 -142 200 -285 141 -147 176 -204 182 -299 4 -57 2 -71 -19 -101 -24
-35 -25 -35 -97 -35 -68 0 -75 2 -93 26 -13 17 -23 53 -28 98 -4 40 -10 75
-13 78 -8 8 -124 6 -138 -2 -17 -11 -7 -191 14 -230 21 -41 73 -88 127 -116
38 -20 60 -24 140 -24 126 0 179 26 238 115 53 79 68 149 52 236 -23 122 -69
195 -235 374 -152 164 -191 244 -165 339 17 65 48 91 109 91 72 0 110 -35 126
-116 l12 -59 46 -7 c90 -13 127 20 111 97 -19 92 -93 186 -179 227 -68 32
-143 36 -209 12z"/>
<path d="M2851 1731 c-10 -6 -12 -19 -7 -47 10 -55 103 -385 133 -469 77 -221
85 -264 93 -514 6 -212 8 -235 25 -247 24 -18 139 -19 152 -1 6 6 13 102 17
212 8 257 12 277 136 670 47 147 112 387 107 392 -3 2 -35 5 -72 5 -76 2 -89
-7 -104 -72 -44 -185 -117 -459 -125 -467 -3 -3 -16 -3 -30 1 -27 7 -51 67
-81 201 -8 39 -31 129 -51 201 l-37 132 -36 6 c-52 8 -104 7 -120 -3z"/>
<path d="M3908 1733 l-78 -4 0 -638 0 -638 31 -7 c17 -3 134 -6 260 -6 l229 0
0 80 0 80 -159 0 c-135 0 -161 2 -172 17 -11 13 -15 119 -17 570 -2 304 -6
552 -10 551 -4 -1 -42 -4 -84 -5z"/>
<path d="M2088 1724 c-15 -25 -40 -160 -63 -334 -14 -107 -35 -232 -45 -278
-11 -46 -27 -140 -35 -210 -9 -70 -24 -181 -35 -247 -10 -66 -21 -141 -25
-167 l-6 -48 58 0 c32 0 63 4 69 8 19 12 31 44 44 116 19 103 26 107 168 104
l117 -3 17 -35 c10 -20 22 -66 27 -104 5 -37 13 -71 16 -75 4 -3 42 -8 86 -10
62 -2 79 0 79 10 -1 53 -25 225 -49 358 -17 87 -53 304 -81 482 -57 362 -68
420 -76 428 -9 9 -261 14 -266 5z m146 -306 c8 -13 17 -43 20 -68 4 -25 20
-144 36 -265 l31 -220 -21 -17 c-27 -22 -94 -31 -145 -21 l-40 9 -3 68 c-3 66
33 326 65 469 16 72 31 84 57 45z"/>
<path d="M4656 1373 c6 -557 12 -735 24 -777 16 -55 85 -119 156 -146 46 -17
75 -21 134 -18 133 6 211 65 260 195 21 56 22 72 21 423 -1 352 -7 611 -17
658 -4 20 -10 22 -78 22 l-73 0 -7 -107 c-4 -60 -6 -297 -5 -528 2 -378 1
-423 -14 -452 -10 -18 -26 -37 -36 -43 -30 -15 -113 -12 -139 6 -52 36 -52 33
-52 599 l0 525 -89 0 -88 0 3 -357z"/>
<path d="M582 542 c-13 -4 -24 -11 -25 -17 -4 -18 88 -26 223 -20 134 6 185
19 119 29 -59 9 -293 15 -317 8z"/>
<path d="M613 403 c-63 -5 -73 -27 -15 -37 48 -8 280 -8 310 0 12 4 22 12 22
19 0 20 -159 29 -317 18z"/>
<path d="M656 262 c-37 -9 -44 -28 -14 -36 29 -7 163 -6 202 3 24 5 27 8 15
18 -18 14 -161 25 -203 15z"/>
</g>
</svg>
