<!DOCTYPE svg PUBLIC "-//W3C//DTD SVG 20010904//EN" "http://www.w3.org/TR/2001/REC-SVG-20010904/DTD/svg10.dtd">
<svg version="1.0" xmlns="http://www.w3.org/2000/svg" width="636px" height="633px" viewBox="0 0 6360 6330" preserveAspectRatio="xMidYMid meet">
<g id="layer1" fill="#0b0000" stroke="none">
 <path d="M2844 5767 c-3 -8 -4 -52 -2 -98 l3 -84 385 0 385 0 -2 85 c-2 47 -5 91 -8 97 -7 19 -753 19 -761 0z"/>
 </g>
<g id="layer2" fill="#4b0502" stroke="none">
 <path d="M2664 5387 c-3 -8 -4 -49 -2 -93 l3 -79 570 0 570 0 0 90 0 90 -568 3 c-468 2 -568 0 -573 -11z"/>
 <path d="M3015 3611 c-7 -12 12 -24 25 -16 11 7 4 25 -10 25 -5 0 -11 -4 -15 -9z"/>
 <path d="M2945 3581 c-7 -12 12 -24 25 -16 11 7 4 25 -10 25 -5 0 -11 -4 -15 -9z"/>
 <path d="M2855 3536 c-14 -10 -15 -15 -6 -21 8 -4 19 -1 28 8 20 19 1 30 -22 13z"/>
 <path d="M2914 3335 c-12 -18 -14 -29 -6 -37 7 -7 15 -1 26 20 20 39 3 52 -20 17z"/>
 <path d="M2541 3276 c-7 -8 -8 -17 -3 -20 6 -3 15 1 21 8 7 8 8 17 3 20 -6 3 -15 -1 -21 -8z"/>
 <path d="M2405 3020 c-4 -6 -4 -14 -1 -17 3 -3 1 -12 -5 -19 -6 -7 -8 -18 -4 -24 9 -14 28 -1 21 15 -2 7 1 18 7 24 8 8 8 14 0 22 -8 8 -13 8 -18 -1z"/>
 <path d="M2875 2980 c-4 -6 -3 -16 3 -22 6 -6 12 -6 17 2 4 6 3 16 -3 22 -6 6 -12 6 -17 -2z"/>
 <path d="M2895 2900 c-4 -6 -3 -16 3 -22 6 -6 12 -6 17 2 4 6 3 16 -3 22 -6 6 -12 6 -17 -2z"/>
 <path d="M2915 2840 c-4 -6 -3 -16 3 -22 6 -6 12 -6 17 2 4 6 3 16 -3 22 -6 6 -12 6 -17 -2z"/>
 <path d="M2395 2780 c-4 -6 -3 -16 3 -22 6 -6 12 -6 17 2 4 6 3 16 -3 22 -6 6 -12 6 -17 -2z"/>
 <path d="M2425 2680 c-4 -6 -3 -16 3 -22 6 -6 12 -6 17 2 4 6 3 16 -3 22 -6 6 -12 6 -17 -2z"/>
 <path d="M2986 2682 c-3 -6 1 -15 8 -21 8 -7 17 -8 20 -3 3 6 -1 15 -8 21 -8 7 -17 8 -20 3z"/>
 <path d="M3046 2582 c-3 -6 1 -15 8 -21 8 -7 17 -8 20 -3 3 6 -1 15 -8 21 -8 7 -17 8 -20 3z"/>
 <path d="M2527 2464 c-3 -4 -2 -16 4 -26 8 -15 14 -17 22 -9 8 8 7 15 -4 26 -8 9 -18 13 -22 9z"/>
 <path d="M3176 2392 c-3 -6 1 -15 8 -21 8 -7 17 -8 20 -3 3 6 -1 15 -8 21 -8 7 -17 8 -20 3z"/>
 <path d="M3356 2122 c-3 -6 1 -15 8 -21 8 -7 17 -8 20 -3 3 6 -1 15 -8 21 -8 7 -17 8 -20 3z"/>
 <path d="M2907 1834 c-3 -4 -2 -16 4 -26 8 -15 14 -17 22 -9 8 8 7 15 -4 26 -8 9 -18 13 -22 9z"/>
 <path d="M2957 1744 c-3 -4 5 -29 19 -56 17 -34 29 -47 36 -40 6 6 3 23 -11 50 -22 43 -34 55 -44 46z"/>
 <path d="M3455 1730 c-4 -6 -4 -14 -1 -17 3 -3 1 -12 -5 -19 -6 -7 -8 -18 -4 -24 9 -14 28 -1 21 15 -2 7 1 18 7 24 8 8 8 14 0 22 -8 8 -13 8 -18 -1z"/>
 <path d="M3085 1450 c-4 -6 -3 -16 3 -22 6 -6 12 -6 17 2 4 6 3 16 -3 22 -6 6 -12 6 -17 -2z"/>
 <path d="M3291 1366 c-7 -8 -8 -17 -3 -20 6 -3 15 1 21 8 7 8 8 17 3 20 -6 3 -15 -1 -21 -8z"/>
 <path d="M3127 1303 c-8 -15 -2 -63 8 -63 12 0 16 58 5 65 -5 3 -10 2 -13 -2z"/>
 <path d="M3221 1256 c-7 -8 -8 -17 -3 -20 6 -3 15 1 21 8 7 8 8 17 3 20 -6 3 -15 -1 -21 -8z"/>
 <path d="M3115 1210 c-4 -6 -3 -16 3 -22 6 -6 12 -6 17 2 4 6 3 16 -3 22 -6 6 -12 6 -17 -2z"/>
 <path d="M3036 1032 c-19 -36 -7 -49 23 -24 20 15 20 19 8 36 -14 19 -15 19 -31 -12z"/>
 </g>
<g id="layer3" fill="#d4140c" stroke="none">
 <path d="M3407 3593 c-12 -11 -8 -97 7 -176 31 -159 107 -302 236 -443 40 -43 91 -106 115 -139 118 -165 186 -384 170 -550 -4 -46 -3 -75 4 -79 15 -10 107 166 137 262 24 73 26 94 21 180 -6 118 -37 222 -97 325 -32 54 -87 116 -219 247 -97 96 -216 221 -265 278 -89 101 -96 108 -109 95z"/>
 </g>
<g id="layer4" fill="#9e0a04" stroke="none">
 <path d="M2664 5007 c-3 -8 -4 -52 -2 -98 l3 -84 565 0 565 0 0 95 0 95 -563 3 c-463 2 -563 0 -568 -11z"/>
 <path d="M3221 3350 c-22 -28 -57 -85 -78 -128 -35 -69 -38 -83 -38 -156 0 -75 4 -88 43 -168 41 -85 66 -124 264 -413 156 -229 185 -300 196 -492 9 -146 21 -153 69 -40 130 301 90 489 -180 846 -127 167 -207 293 -227 355 -10 30 -10 57 0 133 16 121 7 134 -49 63z"/>
 </g>
<g id="layer5" fill="#370302" stroke="none">
 <path d="M3100 3643 c-137 -49 -282 -124 -371 -190 -68 -50 -179 -152 -179 -164 0 -4 -11 -20 -24 -34 -74 -79 -154 -309 -143 -409 10 -89 17 -118 32 -149 8 -17 15 -36 15 -44 0 -12 74 -163 100 -203 20 -31 376 -624 402 -669 41 -71 64 -118 103 -216 20 -49 40 -99 45 -110 37 -91 53 -223 32 -270 -5 -11 -24 -54 -42 -95 -18 -41 -39 -82 -47 -92 -8 -9 -10 -19 -5 -22 5 -3 31 18 57 47 46 50 155 199 155 211 0 3 16 26 35 52 19 25 35 49 35 54 0 4 16 32 36 61 96 143 163 347 149 457 -9 72 -36 144 -78 208 -18 28 -37 58 -40 68 -12 31 -159 246 -168 246 -5 0 -9 5 -9 10 0 6 -26 47 -57 91 -32 45 -68 99 -81 122 -12 22 -28 48 -35 56 -8 9 -26 45 -41 81 -16 36 -32 69 -37 75 -5 5 -9 19 -9 31 0 13 -4 25 -9 28 -14 9 -23 72 -28 200 -3 91 -1 131 11 167 9 26 16 53 16 60 0 17 79 133 167 245 39 51 69 95 65 98 -6 7 -31 7 -52 -1z"/>
 </g>
<g id="layer6" fill="#f9210f" stroke="none">
 <path d="M2476 4628 c-3 -7 -7 -74 -10 -148 -20 -451 -121 -704 -486 -1215 -260 -365 -353 -542 -423 -804 -30 -112 -31 -124 -31 -331 -1 -174 3 -231 18 -300 62 -286 180 -532 354 -741 161 -192 320 -321 535 -434 234 -122 469 -183 749 -192 330 -11 581 49 872 209 236 130 427 298 581 513 126 175 238 431 281 643 22 105 30 392 15 490 -28 173 -74 318 -155 481 -74 149 -167 291 -372 572 -157 215 -233 348 -299 524 -71 191 -104 359 -114 590 l-6 150 -753 3 c-597 2 -753 0 -756 -10z m365 -305 c1 -71 1 -212 -1 -315 l-2 -188 27 -10 c34 -13 126 -13 161 0 l27 11 -6 309 -7 310 190 0 190 0 1 -292 c1 -161 4 -304 8 -318 6 -23 11 -25 82 -28 59 -2 79 1 89 13 9 11 14 94 18 320 l5 305 83 0 c76 0 84 -2 84 -19 0 -55 24 -237 41 -316 29 -131 91 -310 148 -428 69 -140 150 -267 320 -502 177 -245 238 -338 301 -463 105 -208 147 -405 136 -637 -24 -521 -361 -1026 -849 -1271 -99 -50 -286 -111 -397 -129 -140 -22 -422 -20 -548 4 -294 57 -548 195 -772 420 -295 296 -450 651 -450 1031 0 315 98 574 348 920 239 330 298 416 357 520 126 222 215 499 230 722 3 46 8 97 11 115 l5 32 77 4 c42 1 80 4 85 5 4 1 8 -55 8 -125z"/>
 </g>

</svg>