<!DOCTYPE svg PUBLIC "-//W3C//DTD SVG 20010904//EN" "http://www.w3.org/TR/2001/REC-SVG-20010904/DTD/svg10.dtd">
<svg version="1.0" xmlns="http://www.w3.org/2000/svg" width="1156px" height="233px" viewBox="0 0 11560 2330" preserveAspectRatio="xMidYMid meet">
<g id="layer1" fill="#ffffff" stroke="none">
 <path d="M618 2109 c-24 -14 -23 -36 3 -50 34 -18 224 -8 246 13 13 14 14 20 3 32 -10 13 -35 16 -124 16 -61 0 -119 -5 -128 -11z"/>
 <path d="M612 1981 c-48 -8 -67 -23 -59 -45 8 -21 73 -28 230 -24 114 2 139 6 154 21 16 15 16 19 2 32 -12 12 -46 17 -150 20 -74 2 -153 0 -177 -4z"/>
 <path d="M1874 1905 c-4 -9 -4 -46 -1 -83 7 -90 61 -455 92 -622 13 -74 36 -216 50 -315 14 -99 33 -207 43 -240 l18 -60 50 -3 c86 -6 212 8 234 26 21 19 17 -4 130 682 73 443 94 596 83 613 -3 5 -39 7 -85 5 -99 -6 -111 -16 -132 -122 -9 -44 -22 -86 -28 -93 -17 -21 -225 -15 -238 7 -5 8 -16 45 -26 82 -20 85 -43 115 -92 123 -20 4 -49 9 -65 11 -19 4 -29 1 -33 -11z m415 -434 c12 -8 9 -45 -18 -238 -33 -238 -48 -313 -61 -313 -17 0 -80 386 -80 488 l0 72 73 0 c39 0 78 -4 86 -9z"/>
 <path d="M4883 1910 c-83 -17 -160 -69 -198 -133 -36 -63 -45 -197 -45 -725 0 -520 -13 -466 115 -467 l80 0 8 505 c4 278 10 524 13 548 8 62 32 82 97 82 60 0 72 -6 85 -40 5 -14 13 -262 17 -552 6 -433 10 -530 22 -539 17 -14 151 -5 167 11 13 13 23 353 25 783 l1 277 -34 69 c-19 37 -46 82 -61 99 -55 65 -190 103 -292 82z"/>
 <path d="M5795 1907 c-73 -19 -107 -40 -158 -97 -50 -55 -53 -65 -62 -202 -6 -103 -2 -108 93 -108 71 0 87 14 97 85 4 28 14 67 22 88 14 33 19 37 52 38 111 4 138 -22 129 -125 -7 -85 -46 -148 -176 -287 -129 -137 -176 -204 -198 -275 -16 -55 -19 -240 -4 -279 17 -46 117 -141 172 -165 66 -28 170 -29 232 -1 104 45 196 174 196 273 0 79 -9 88 -90 88 -82 0 -103 -14 -113 -78 -10 -60 -49 -102 -97 -102 -21 0 -46 3 -55 6 -26 10 -45 59 -45 117 0 76 32 132 156 272 145 164 200 245 226 328 26 88 22 191 -11 255 -32 62 -99 132 -148 154 -55 24 -155 31 -218 15z"/>
 <path d="M3860 1901 l-35 -6 0 -655 0 -655 84 -3 c46 -2 88 1 93 6 5 5 13 255 17 556 5 302 13 552 18 556 4 5 78 12 163 17 l155 8 0 85 0 85 -45 7 c-56 8 -402 8 -450 -1z"/>
 <path d="M3079 1884 c-10 -12 -16 -69 -21 -198 -11 -251 -21 -320 -73 -486 -118 -377 -174 -595 -157 -612 5 -5 49 -8 98 -6 l89 3 23 68 c12 38 41 140 63 228 44 179 65 239 83 239 11 0 55 -147 112 -383 34 -139 43 -150 128 -155 82 -5 100 6 91 57 -9 52 -87 328 -150 531 -66 211 -72 249 -86 505 -5 110 -12 206 -14 213 -7 20 -169 16 -186 -4z"/>
 <path d="M563 1830 c-27 -11 -30 -32 -8 -50 24 -20 361 -8 383 14 33 33 1 40 -181 43 -95 2 -182 -1 -194 -7z"/>
 <path d="M482 1684 c-15 -10 -22 -26 -22 -47 0 -59 -30 -171 -63 -242 -19 -38 -71 -131 -117 -205 -46 -74 -98 -166 -117 -205 -32 -67 -33 -74 -33 -190 0 -207 29 -275 179 -426 148 -148 266 -195 461 -187 87 4 118 10 185 37 167 65 278 169 358 331 l42 85 3 137 4 138 -54 102 c-30 57 -90 159 -133 228 -99 159 -120 207 -140 322 -26 149 -3 138 -288 138 -203 0 -246 -3 -265 -16z m315 -62 c6 -4 15 -46 19 -95 12 -154 52 -159 63 -8 3 49 9 92 12 96 16 16 37 -13 62 -88 46 -132 91 -221 182 -357 121 -182 155 -266 155 -391 0 -225 -175 -444 -406 -504 -75 -19 -203 -19 -278 0 -209 55 -369 228 -397 430 -22 163 4 253 130 445 99 150 132 215 171 339 31 96 41 117 59 119 12 2 21 -2 21 -10 0 -50 21 -183 31 -194 29 -35 46 -2 60 114 6 48 16 93 21 100 11 13 76 16 95 4z"/>
 <path d="M549 1253 c-83 -78 -108 -126 -109 -201 0 -59 10 -83 118 -268 92 -158 119 -212 133 -268 6 -25 16 -49 21 -52 14 -9 38 15 80 80 67 104 55 157 -84 381 -58 94 -88 167 -88 213 0 15 12 55 26 89 49 114 8 125 -97 26z"/>
 <path d="M814 1256 c-7 -18 15 -60 86 -166 32 -47 69 -104 84 -128 18 -28 33 -42 44 -40 24 5 29 96 6 143 -16 35 -186 205 -205 205 -5 0 -12 -6 -15 -14z"/>
 <path d="M717 1173 c-13 -13 -7 -94 9 -126 10 -18 39 -65 66 -105 27 -40 62 -102 79 -138 16 -36 33 -63 39 -59 5 3 10 41 10 83 0 87 -3 93 -119 260 -62 90 -71 99 -84 85z"/>
 <path d="M6731 1446 c-8 -9 -11 -90 -9 -272 l3 -259 40 0 40 0 3 107 3 106 57 4 c31 1 78 2 103 0 l47 -3 8 -107 9 -107 35 0 35 0 0 264 c0 240 -2 265 -17 275 -13 8 -23 8 -35 0 -15 -9 -18 -29 -21 -113 l-3 -101 -109 0 -110 0 0 98 c0 63 -4 102 -12 110 -16 16 -53 15 -67 -2z"/>
 <path d="M7224 1416 c-44 -43 -44 -44 -44 -114 0 -126 46 -172 171 -172 71 0 73 0 111 40 37 40 38 42 38 118 0 88 -12 117 -59 149 -27 19 -48 23 -104 23 -69 0 -70 0 -113 -44z m166 -65 c11 -22 13 -80 4 -105 -9 -23 -86 -22 -100 2 -17 29 -17 88 1 106 23 23 82 21 95 -3z"/>
 <path d="M7613 1439 c-44 -28 -55 -71 -51 -199 l3 -105 40 0 40 0 10 119 c6 66 15 121 21 123 5 2 21 -8 33 -21 19 -20 25 -42 32 -113 12 -115 12 -115 56 -111 l38 3 0 160 0 160 -28 3 c-16 2 -34 -2 -42 -8 -9 -7 -15 -8 -20 0 -11 18 -98 11 -132 -11z"/>
 <path d="M7913 1438 c-31 -35 -35 -46 -23 -68 13 -24 68 -28 76 -5 9 22 44 19 44 -3 0 -19 -41 -55 -77 -66 -32 -10 -55 -60 -42 -94 21 -56 47 -72 114 -72 74 0 108 19 103 58 -3 25 -8 27 -58 33 -30 3 -49 6 -42 7 7 1 35 23 62 48 43 40 50 52 50 84 0 31 -7 44 -35 69 -31 27 -43 31 -94 31 -47 0 -61 -4 -78 -22z"/>
 <path d="M8211 1446 c-6 -8 -12 -58 -14 -117 -2 -101 -3 -103 -27 -109 -21 -5 -25 -12 -25 -45 0 -36 3 -40 26 -43 25 -3 27 -7 27 -53 0 -60 9 -71 53 -67 34 3 34 3 37 60 3 53 5 57 30 60 24 3 27 7 27 43 0 33 -4 40 -25 45 -24 6 -25 8 -28 110 -1 57 -8 110 -14 117 -14 17 -52 17 -67 -1z"/>
 <path d="M8424 1416 c-44 -43 -44 -44 -44 -114 0 -125 46 -172 169 -172 68 0 72 1 111 38 l40 39 0 85 c0 70 -4 90 -20 110 -30 39 -80 58 -150 58 -61 0 -64 -1 -106 -44z m160 -72 c9 -8 16 -31 16 -49 0 -41 -22 -65 -58 -65 -44 0 -57 15 -57 65 0 30 5 49 15 55 23 15 67 12 84 -6z"/>
 <path d="M8761 1446 c-8 -9 -11 -61 -9 -162 l3 -149 105 -3 c58 -1 115 0 127 3 40 10 53 53 53 183 0 130 -5 142 -55 142 -50 0 -55 -13 -55 -133 0 -108 0 -108 -22 -101 -40 12 -45 23 -53 117 -4 50 -11 98 -17 105 -14 16 -63 15 -77 -2z"/>
 <path d="M9325 1447 c-3 -7 -4 -129 -3 -272 l3 -260 97 -3 c89 -2 101 -1 137 22 22 14 45 34 51 45 14 27 13 144 -2 176 -10 22 -8 30 11 56 20 27 23 40 19 106 -3 72 -5 76 -41 109 l-37 34 -115 0 c-84 0 -117 -3 -120 -13z m198 -115 c41 -36 9 -82 -57 -82 l-46 0 0 49 c0 39 4 50 18 53 27 6 65 -3 85 -20z m-14 -232 c13 -38 7 -54 -25 -69 -53 -24 -64 -16 -64 44 l0 55 39 0 c34 0 40 -4 50 -30z"/>
 <path d="M9711 1446 c-8 -9 -11 -61 -9 -162 l3 -149 38 -3 c27 -2 39 1 43 13 6 15 8 15 24 0 11 -10 31 -15 52 -13 30 3 33 6 36 40 3 34 0 39 -37 62 -42 27 -44 32 -55 145 -3 29 -11 59 -17 67 -15 18 -63 18 -78 0z"/>
 <path d="M9995 1446 c-58 -26 -70 -49 -74 -147 l-3 -89 40 -40 40 -40 119 2 118 3 0 160 c0 159 0 160 -23 163 -13 2 -29 -2 -37 -8 -9 -7 -15 -8 -20 0 -9 14 -124 12 -160 -4z m129 -102 c9 -8 16 -31 16 -49 0 -43 -22 -65 -65 -65 -58 0 -86 69 -45 110 24 24 72 26 94 4z"/>
 <path d="M10331 1446 c-8 -9 -11 -61 -9 -162 l3 -149 109 -3 c107 -2 110 -2 138 25 28 27 28 28 28 153 0 133 -5 150 -46 150 -35 0 -42 -20 -50 -128 -6 -96 -8 -102 -29 -102 -38 0 -52 29 -60 120 -4 47 -12 91 -17 98 -14 16 -53 15 -67 -2z"/>
 <path d="M10692 1416 c-40 -44 -42 -48 -42 -108 0 -79 27 -141 69 -162 38 -20 133 -21 171 -1 33 17 38 40 15 73 -14 19 -22 21 -75 15 -59 -6 -60 -5 -70 23 -14 37 -5 90 18 100 9 5 39 8 66 9 44 0 52 3 65 27 25 44 -1 62 -97 66 l-78 4 -42 -46z"/>
 <path d="M10981 1446 c-8 -9 -11 -94 -9 -287 l3 -274 33 -3 c20 -2 34 2 36 10 3 7 8 65 11 129 l7 116 46 -4 c61 -6 97 9 122 49 17 28 20 51 20 144 0 116 -6 134 -45 134 -42 0 -54 -29 -57 -130 l-3 -95 -28 -3 c-23 -3 -30 2 -42 32 -8 19 -15 64 -15 99 0 49 -4 68 -18 80 -23 21 -46 22 -61 3z"/>
 </g>

</svg>