<!DOCTYPE svg PUBLIC "-//W3C//DTD SVG 20010904//EN" "http://www.w3.org/TR/2001/REC-SVG-20010904/DTD/svg10.dtd">
<svg version="1.0" xmlns="http://www.w3.org/2000/svg" width="222px" height="35px" viewBox="0 0 2220 350" preserveAspectRatio="xMidYMid meet">
<g id="layer1" fill="#be2929" stroke="none">
 <path d="M478 279 c-24 -14 -26 -129 -3 -129 11 0 15 12 15 49 0 28 5 53 12 57 18 11 48 -34 48 -72 0 -24 5 -34 15 -34 12 0 15 14 15 65 0 61 -1 65 -22 63 -13 -1 -32 1 -43 5 -11 3 -28 2 -37 -4z"/>
 <path d="M70 170 c0 -89 3 -110 14 -110 11 0 16 14 18 47 l3 48 50 0 50 0 3 -47 c2 -34 7 -48 18 -48 11 0 14 21 14 110 0 91 -3 110 -15 110 -11 0 -15 -12 -15 -45 l0 -45 -55 0 -55 0 0 45 c0 33 -4 45 -15 45 -12 0 -15 -19 -15 -110z"/>
 <path d="M296 258 c-47 -67 33 -140 102 -92 28 19 30 74 4 97 -28 25 -87 22 -106 -5z m75 -8 c21 -12 25 -40 7 -58 -18 -18 -46 -14 -58 9 -9 16 -8 25 6 40 20 22 20 22 45 9z"/>
 <path d="M617 273 c-16 -15 -5 -24 23 -18 23 5 30 3 30 -8 0 -8 -11 -18 -24 -21 -53 -13 -38 -79 16 -74 17 2 33 9 36 16 3 9 -3 13 -18 10 -31 -4 -37 18 -7 26 54 13 40 76 -17 76 -18 0 -36 -3 -39 -7z"/>
 <path d="M760 235 c0 -31 -5 -47 -15 -51 -8 -4 -15 -12 -15 -20 0 -8 7 -14 15 -14 9 0 15 -9 15 -25 0 -16 6 -25 15 -25 9 0 15 9 15 25 0 16 6 25 15 25 8 0 15 7 15 15 0 8 -7 15 -15 15 -11 0 -15 12 -15 50 0 38 -4 50 -15 50 -11 0 -15 -12 -15 -45z"/>
 <path d="M856 258 c-47 -67 33 -140 102 -92 28 19 30 74 4 97 -28 25 -87 22 -106 -5z m75 -8 c21 -12 25 -40 7 -58 -18 -18 -46 -14 -58 9 -9 16 -8 25 6 40 20 22 20 22 45 9z"/>
 <path d="M1020 218 l0 -63 50 -2 c59 -3 70 10 70 81 0 39 -3 46 -20 46 -17 0 -20 -7 -20 -51 0 -47 -2 -50 -22 -47 -20 3 -23 10 -26 51 -2 33 -7 47 -18 47 -11 0 -14 -15 -14 -62z"/>
 <path d="M1280 170 l0 -110 43 0 c54 0 87 22 87 59 0 15 -5 32 -10 37 -8 8 -6 15 5 24 21 17 19 63 -3 83 -12 11 -36 17 -70 17 l-52 0 0 -110z m100 65 c18 -21 -4 -45 -41 -45 -24 0 -29 4 -29 23 0 13 3 27 7 30 12 12 50 7 63 -8z m-16 -91 c21 -21 20 -31 -5 -44 -28 -16 -49 -6 -49 23 0 40 26 50 54 21z"/>
 <path d="M1460 215 c0 -51 3 -65 15 -65 8 0 15 5 15 10 0 7 6 7 19 0 40 -21 43 -3 6 34 -16 16 -25 36 -25 56 0 20 -5 30 -15 30 -12 0 -15 -14 -15 -65z"/>
 <path d="M1576 264 c-22 -21 -20 -70 3 -93 15 -15 33 -20 70 -19 l51 1 0 62 0 62 -54 2 c-38 0 -60 -4 -70 -15z m78 -17 c36 -26 -4 -84 -41 -61 -24 15 -27 38 -8 58 20 19 26 20 49 3z"/>
 <path d="M1750 217 l0 -64 48 -1 c26 0 53 4 60 10 18 16 16 118 -3 118 -11 0 -15 -12 -15 -45 0 -32 -5 -47 -15 -51 -25 -10 -45 16 -45 57 0 28 -4 39 -15 39 -12 0 -15 -14 -15 -63z"/>
 <path d="M1916 258 c-21 -30 -20 -50 5 -82 20 -25 50 -33 83 -20 26 10 7 31 -23 26 -40 -6 -61 30 -35 59 9 11 27 18 38 17 12 -2 23 2 26 7 3 6 -13 11 -37 13 -33 2 -44 -1 -57 -20z"/>
 <path d="M2050 165 c0 -96 3 -115 15 -115 12 0 15 13 15 55 l0 54 30 -5 c45 -9 60 9 60 72 0 41 -4 54 -15 54 -11 0 -15 -12 -15 -45 0 -33 -5 -47 -16 -52 -23 -9 -44 23 -44 64 0 23 -5 33 -15 33 -12 0 -15 -19 -15 -115z"/>
 </g>

</svg>